# Blender 4.4.3
# www.blender.org
mtllib deskthing.mtl
o Cube
v 0.500000 0.050000 -1.600000
v 0.500000 -0.050000 -1.600000
v 0.500000 0.050000 1.600000
v 0.500000 -0.050000 1.600000
v -0.500000 0.050000 -1.600000
v -0.500000 -0.050000 -1.600000
v -0.500000 0.050000 1.600000
v -0.500000 -0.050000 1.600000
vn -0.0000 1.0000 -0.0000
vn -0.0000 -0.0000 1.0000
vn -1.0000 -0.0000 -0.0000
vn -0.0000 -1.0000 -0.0000
vn 1.0000 -0.0000 -0.0000
vn -0.0000 -0.0000 -1.0000
vt 0.625000 0.500000
vt 0.875000 0.500000
vt 0.875000 0.750000
vt 0.625000 0.750000
vt 0.375000 0.750000
vt 0.625000 1.000000
vt 0.375000 1.000000
vt 0.375000 0.000000
vt 0.625000 0.000000
vt 0.625000 0.250000
vt 0.375000 0.250000
vt 0.125000 0.500000
vt 0.375000 0.500000
vt 0.125000 0.750000
s 0
usemtl Material
f 1/1/1 5/2/1 7/3/1 3/4/1
f 4/5/2 3/4/2 7/6/2 8/7/2
f 8/8/3 7/9/3 5/10/3 6/11/3
f 6/12/4 2/13/4 4/5/4 8/14/4
f 2/13/5 1/1/5 3/4/5 4/5/5
f 6/11/6 5/10/6 1/1/6 2/13/6
o Cylinder
v 0.046523 -1.415110 -1.533543
v 0.046523 -0.015110 -1.533543
v 0.066032 -1.415110 -1.531621
v 0.066032 -0.015110 -1.531621
v 0.084791 -1.415110 -1.525930
v 0.084791 -0.015110 -1.525930
v 0.102080 -1.415110 -1.516689
v 0.102080 -0.015110 -1.516689
v 0.117234 -1.415110 -1.504253
v 0.117234 -0.015110 -1.504253
v 0.129670 -1.415110 -1.489100
v 0.129670 -0.015110 -1.489100
v 0.138911 -1.415110 -1.471811
v 0.138911 -0.015110 -1.471811
v 0.144601 -1.415110 -1.453052
v 0.144601 -0.015110 -1.453052
v 0.146523 -1.415110 -1.433542
v 0.146523 -0.015110 -1.433542
v 0.144601 -1.415110 -1.414033
v 0.144601 -0.015110 -1.414033
v 0.138911 -1.415110 -1.395274
v 0.138911 -0.015110 -1.395274
v 0.129670 -1.415110 -1.377985
v 0.129670 -0.015110 -1.377985
v 0.117234 -1.415110 -1.362832
v 0.117234 -0.015110 -1.362832
v 0.102080 -1.415110 -1.350396
v 0.102080 -0.015110 -1.350396
v 0.084791 -1.415110 -1.341155
v 0.084791 -0.015110 -1.341155
v 0.066032 -1.415110 -1.335464
v 0.066032 -0.015110 -1.335464
v 0.046523 -1.415110 -1.333542
v 0.046523 -0.015110 -1.333542
v 0.027014 -1.415110 -1.335464
v 0.027014 -0.015110 -1.335464
v 0.008255 -1.415110 -1.341155
v 0.008255 -0.015110 -1.341155
v -0.009034 -1.415110 -1.350396
v -0.009034 -0.015110 -1.350396
v -0.024188 -1.415110 -1.362832
v -0.024188 -0.015110 -1.362832
v -0.036624 -1.415110 -1.377985
v -0.036624 -0.015110 -1.377985
v -0.045865 -1.415110 -1.395274
v -0.045865 -0.015110 -1.395274
v -0.051556 -1.415110 -1.414033
v -0.051556 -0.015110 -1.414033
v -0.053477 -1.415110 -1.433542
v -0.053477 -0.015110 -1.433542
v -0.051556 -1.415110 -1.453052
v -0.051556 -0.015110 -1.453052
v -0.045865 -1.415110 -1.471811
v -0.045865 -0.015110 -1.471811
v -0.036624 -1.415110 -1.489100
v -0.036624 -0.015110 -1.489100
v -0.024188 -1.415110 -1.504253
v -0.024188 -0.015110 -1.504253
v -0.009034 -1.415110 -1.516689
v -0.009034 -0.015110 -1.516689
v 0.008255 -1.415110 -1.525930
v 0.008255 -0.015110 -1.525930
v 0.027014 -1.415110 -1.531621
v 0.027014 -0.015110 -1.531621
vn 0.0980 -0.0000 -0.9952
vn 0.2903 -0.0000 -0.9569
vn 0.4714 -0.0000 -0.8819
vn 0.6344 -0.0000 -0.7730
vn 0.7730 -0.0000 -0.6344
vn 0.8819 -0.0000 -0.4714
vn 0.9569 -0.0000 -0.2903
vn 0.9952 -0.0000 -0.0980
vn 0.9952 -0.0000 0.0980
vn 0.9569 -0.0000 0.2903
vn 0.8819 -0.0000 0.4714
vn 0.7730 -0.0000 0.6344
vn 0.6344 -0.0000 0.7730
vn 0.4714 -0.0000 0.8819
vn 0.2903 -0.0000 0.9569
vn 0.0980 -0.0000 0.9952
vn -0.0980 -0.0000 0.9952
vn -0.2903 -0.0000 0.9569
vn -0.4714 -0.0000 0.8819
vn -0.6344 -0.0000 0.7730
vn -0.7730 -0.0000 0.6344
vn -0.8819 -0.0000 0.4714
vn -0.9569 -0.0000 0.2903
vn -0.9952 -0.0000 0.0980
vn -0.9952 -0.0000 -0.0980
vn -0.9569 -0.0000 -0.2903
vn -0.8819 -0.0000 -0.4714
vn -0.7730 -0.0000 -0.6344
vn -0.6344 -0.0000 -0.7730
vn -0.4714 -0.0000 -0.8819
vn -0.0000 1.0000 -0.0000
vn -0.2903 -0.0000 -0.9569
vn -0.0980 -0.0000 -0.9952
vn -0.0000 -1.0000 -0.0000
vt 1.000000 0.500000
vt 1.000000 1.000000
vt 0.968750 1.000000
vt 0.968750 0.500000
vt 0.937500 1.000000
vt 0.937500 0.500000
vt 0.906250 1.000000
vt 0.906250 0.500000
vt 0.875000 1.000000
vt 0.875000 0.500000
vt 0.843750 1.000000
vt 0.843750 0.500000
vt 0.812500 1.000000
vt 0.812500 0.500000
vt 0.781250 1.000000
vt 0.781250 0.500000
vt 0.750000 1.000000
vt 0.750000 0.500000
vt 0.718750 1.000000
vt 0.718750 0.500000
vt 0.687500 1.000000
vt 0.687500 0.500000
vt 0.656250 1.000000
vt 0.656250 0.500000
vt 0.625000 1.000000
vt 0.625000 0.500000
vt 0.593750 1.000000
vt 0.593750 0.500000
vt 0.562500 1.000000
vt 0.562500 0.500000
vt 0.531250 1.000000
vt 0.531250 0.500000
vt 0.500000 1.000000
vt 0.500000 0.500000
vt 0.468750 1.000000
vt 0.468750 0.500000
vt 0.437500 1.000000
vt 0.437500 0.500000
vt 0.406250 1.000000
vt 0.406250 0.500000
vt 0.375000 1.000000
vt 0.375000 0.500000
vt 0.343750 1.000000
vt 0.343750 0.500000
vt 0.312500 1.000000
vt 0.312500 0.500000
vt 0.281250 1.000000
vt 0.281250 0.500000
vt 0.250000 1.000000
vt 0.250000 0.500000
vt 0.218750 1.000000
vt 0.218750 0.500000
vt 0.187500 1.000000
vt 0.187500 0.500000
vt 0.156250 1.000000
vt 0.156250 0.500000
vt 0.125000 1.000000
vt 0.125000 0.500000
vt 0.093750 1.000000
vt 0.093750 0.500000
vt 0.062500 1.000000
vt 0.062500 0.500000
vt 0.296822 0.485388
vt 0.250000 0.490000
vt 0.203178 0.485388
vt 0.158156 0.471731
vt 0.116663 0.449553
vt 0.080294 0.419706
vt 0.050447 0.383337
vt 0.028269 0.341844
vt 0.014612 0.296822
vt 0.010000 0.250000
vt 0.014612 0.203178
vt 0.028269 0.158156
vt 0.050447 0.116663
vt 0.080294 0.080294
vt 0.116663 0.050447
vt 0.158156 0.028269
vt 0.203178 0.014612
vt 0.250000 0.010000
vt 0.296822 0.014612
vt 0.341844 0.028269
vt 0.383337 0.050447
vt 0.419706 0.080294
vt 0.449553 0.116663
vt 0.471731 0.158156
vt 0.485388 0.203178
vt 0.490000 0.250000
vt 0.485388 0.296822
vt 0.471731 0.341844
vt 0.449553 0.383337
vt 0.419706 0.419706
vt 0.383337 0.449553
vt 0.341844 0.471731
vt 0.031250 1.000000
vt 0.031250 0.500000
vt 0.000000 1.000000
vt 0.000000 0.500000
vt 0.750000 0.490000
vt 0.796822 0.485388
vt 0.841844 0.471731
vt 0.883337 0.449553
vt 0.919706 0.419706
vt 0.949553 0.383337
vt 0.971731 0.341844
vt 0.985388 0.296822
vt 0.990000 0.250000
vt 0.985388 0.203178
vt 0.971731 0.158156
vt 0.949553 0.116663
vt 0.919706 0.080294
vt 0.883337 0.050447
vt 0.841844 0.028269
vt 0.796822 0.014612
vt 0.750000 0.010000
vt 0.703178 0.014612
vt 0.658156 0.028269
vt 0.616663 0.050447
vt 0.580294 0.080294
vt 0.550447 0.116663
vt 0.528269 0.158156
vt 0.514612 0.203178
vt 0.510000 0.250000
vt 0.514612 0.296822
vt 0.528269 0.341844
vt 0.550447 0.383337
vt 0.580294 0.419706
vt 0.616663 0.449553
vt 0.658156 0.471731
vt 0.703178 0.485388
s 0
f 9/15/7 10/16/7 12/17/7 11/18/7
f 11/18/8 12/17/8 14/19/8 13/20/8
f 13/20/9 14/19/9 16/21/9 15/22/9
f 15/22/10 16/21/10 18/23/10 17/24/10
f 17/24/11 18/23/11 20/25/11 19/26/11
f 19/26/12 20/25/12 22/27/12 21/28/12
f 21/28/13 22/27/13 24/29/13 23/30/13
f 23/30/14 24/29/14 26/31/14 25/32/14
f 25/32/15 26/31/15 28/33/15 27/34/15
f 27/34/16 28/33/16 30/35/16 29/36/16
f 29/36/17 30/35/17 32/37/17 31/38/17
f 31/38/18 32/37/18 34/39/18 33/40/18
f 33/40/19 34/39/19 36/41/19 35/42/19
f 35/42/20 36/41/20 38/43/20 37/44/20
f 37/44/21 38/43/21 40/45/21 39/46/21
f 39/46/22 40/45/22 42/47/22 41/48/22
f 41/48/23 42/47/23 44/49/23 43/50/23
f 43/50/24 44/49/24 46/51/24 45/52/24
f 45/52/25 46/51/25 48/53/25 47/54/25
f 47/54/26 48/53/26 50/55/26 49/56/26
f 49/56/27 50/55/27 52/57/27 51/58/27
f 51/58/28 52/57/28 54/59/28 53/60/28
f 53/60/29 54/59/29 56/61/29 55/62/29
f 55/62/30 56/61/30 58/63/30 57/64/30
f 57/64/31 58/63/31 60/65/31 59/66/31
f 59/66/32 60/65/32 62/67/32 61/68/32
f 61/68/33 62/67/33 64/69/33 63/70/33
f 63/70/34 64/69/34 66/71/34 65/72/34
f 65/72/35 66/71/35 68/73/35 67/74/35
f 67/74/36 68/73/36 70/75/36 69/76/36
f 12/77/37 10/78/37 72/79/37 70/80/37 68/81/37 66/82/37 64/83/37 62/84/37 60/85/37 58/86/37 56/87/37 54/88/37 52/89/37 50/90/37 48/91/37 46/92/37 44/93/37 42/94/37 40/95/37 38/96/37 36/97/37 34/98/37 32/99/37 30/100/37 28/101/37 26/102/37 24/103/37 22/104/37 20/105/37 18/106/37 16/107/37 14/108/37
f 69/76/38 70/75/38 72/109/38 71/110/38
f 71/110/39 72/109/39 10/111/39 9/112/39
f 9/113/40 11/114/40 13/115/40 15/116/40 17/117/40 19/118/40 21/119/40 23/120/40 25/121/40 27/122/40 29/123/40 31/124/40 33/125/40 35/126/40 37/127/40 39/128/40 41/129/40 43/130/40 45/131/40 47/132/40 49/133/40 51/134/40 53/135/40 55/136/40 57/137/40 59/138/40 61/139/40 63/140/40 65/141/40 67/142/40 69/143/40 71/144/40
o Cylinder.001
v 0.046523 -1.415110 1.337672
v 0.046523 -0.015110 1.337672
v 0.066032 -1.415110 1.339593
v 0.066032 -0.015110 1.339593
v 0.084791 -1.415110 1.345284
v 0.084791 -0.015110 1.345284
v 0.102080 -1.415110 1.354525
v 0.102080 -0.015110 1.354525
v 0.117234 -1.415110 1.366961
v 0.117234 -0.015110 1.366961
v 0.129670 -1.415110 1.382115
v 0.129670 -0.015110 1.382115
v 0.138911 -1.415110 1.399403
v 0.138911 -0.015110 1.399403
v 0.144601 -1.415110 1.418163
v 0.144601 -0.015110 1.418163
v 0.146523 -1.415110 1.437672
v 0.146523 -0.015110 1.437672
v 0.144601 -1.415110 1.457181
v 0.144601 -0.015110 1.457181
v 0.138911 -1.415110 1.475940
v 0.138911 -0.015110 1.475940
v 0.129670 -1.415110 1.493229
v 0.129670 -0.015110 1.493229
v 0.117234 -1.415110 1.508382
v 0.117234 -0.015110 1.508382
v 0.102080 -1.415110 1.520819
v 0.102080 -0.015110 1.520819
v 0.084791 -1.415110 1.530060
v 0.084791 -0.015110 1.530060
v 0.066032 -1.415110 1.535750
v 0.066032 -0.015110 1.535750
v 0.046523 -1.415110 1.537672
v 0.046523 -0.015110 1.537672
v 0.027014 -1.415110 1.535750
v 0.027014 -0.015110 1.535750
v 0.008255 -1.415110 1.530060
v 0.008255 -0.015110 1.530060
v -0.009034 -1.415110 1.520819
v -0.009034 -0.015110 1.520819
v -0.024188 -1.415110 1.508382
v -0.024188 -0.015110 1.508382
v -0.036624 -1.415110 1.493229
v -0.036624 -0.015110 1.493229
v -0.045865 -1.415110 1.475940
v -0.045865 -0.015110 1.475940
v -0.051556 -1.415110 1.457181
v -0.051556 -0.015110 1.457181
v -0.053477 -1.415110 1.437672
v -0.053477 -0.015110 1.437672
v -0.051556 -1.415110 1.418163
v -0.051556 -0.015110 1.418163
v -0.045865 -1.415110 1.399403
v -0.045865 -0.015110 1.399403
v -0.036624 -1.415110 1.382115
v -0.036624 -0.015110 1.382115
v -0.024188 -1.415110 1.366961
v -0.024188 -0.015110 1.366961
v -0.009034 -1.415110 1.354525
v -0.009034 -0.015110 1.354525
v 0.008255 -1.415110 1.345284
v 0.008255 -0.015110 1.345284
v 0.027014 -1.415110 1.339593
v 0.027014 -0.015110 1.339593
vn 0.0980 -0.0000 -0.9952
vn 0.2903 -0.0000 -0.9569
vn 0.4714 -0.0000 -0.8819
vn 0.6344 -0.0000 -0.7730
vn 0.7730 -0.0000 -0.6344
vn 0.8819 -0.0000 -0.4714
vn 0.9569 -0.0000 -0.2903
vn 0.9952 -0.0000 -0.0980
vn 0.9952 -0.0000 0.0980
vn 0.9569 -0.0000 0.2903
vn 0.8819 -0.0000 0.4714
vn 0.7730 -0.0000 0.6344
vn 0.6344 -0.0000 0.7730
vn 0.4714 -0.0000 0.8819
vn 0.2903 -0.0000 0.9569
vn 0.0980 -0.0000 0.9952
vn -0.0980 -0.0000 0.9952
vn -0.2903 -0.0000 0.9569
vn -0.4714 -0.0000 0.8819
vn -0.6344 -0.0000 0.7730
vn -0.7730 -0.0000 0.6344
vn -0.8819 -0.0000 0.4714
vn -0.9569 -0.0000 0.2903
vn -0.9952 -0.0000 0.0980
vn -0.9952 -0.0000 -0.0980
vn -0.9569 -0.0000 -0.2903
vn -0.8819 -0.0000 -0.4714
vn -0.7730 -0.0000 -0.6344
vn -0.6344 -0.0000 -0.7730
vn -0.4714 -0.0000 -0.8819
vn -0.0000 1.0000 -0.0000
vn -0.2903 -0.0000 -0.9569
vn -0.0980 -0.0000 -0.9952
vn -0.0000 -1.0000 -0.0000
vt 1.000000 0.500000
vt 1.000000 1.000000
vt 0.968750 1.000000
vt 0.968750 0.500000
vt 0.937500 1.000000
vt 0.937500 0.500000
vt 0.906250 1.000000
vt 0.906250 0.500000
vt 0.875000 1.000000
vt 0.875000 0.500000
vt 0.843750 1.000000
vt 0.843750 0.500000
vt 0.812500 1.000000
vt 0.812500 0.500000
vt 0.781250 1.000000
vt 0.781250 0.500000
vt 0.750000 1.000000
vt 0.750000 0.500000
vt 0.718750 1.000000
vt 0.718750 0.500000
vt 0.687500 1.000000
vt 0.687500 0.500000
vt 0.656250 1.000000
vt 0.656250 0.500000
vt 0.625000 1.000000
vt 0.625000 0.500000
vt 0.593750 1.000000
vt 0.593750 0.500000
vt 0.562500 1.000000
vt 0.562500 0.500000
vt 0.531250 1.000000
vt 0.531250 0.500000
vt 0.500000 1.000000
vt 0.500000 0.500000
vt 0.468750 1.000000
vt 0.468750 0.500000
vt 0.437500 1.000000
vt 0.437500 0.500000
vt 0.406250 1.000000
vt 0.406250 0.500000
vt 0.375000 1.000000
vt 0.375000 0.500000
vt 0.343750 1.000000
vt 0.343750 0.500000
vt 0.312500 1.000000
vt 0.312500 0.500000
vt 0.281250 1.000000
vt 0.281250 0.500000
vt 0.250000 1.000000
vt 0.250000 0.500000
vt 0.218750 1.000000
vt 0.218750 0.500000
vt 0.187500 1.000000
vt 0.187500 0.500000
vt 0.156250 1.000000
vt 0.156250 0.500000
vt 0.125000 1.000000
vt 0.125000 0.500000
vt 0.093750 1.000000
vt 0.093750 0.500000
vt 0.062500 1.000000
vt 0.062500 0.500000
vt 0.296822 0.485388
vt 0.250000 0.490000
vt 0.203178 0.485388
vt 0.158156 0.471731
vt 0.116663 0.449553
vt 0.080294 0.419706
vt 0.050447 0.383337
vt 0.028269 0.341844
vt 0.014612 0.296822
vt 0.010000 0.250000
vt 0.014612 0.203178
vt 0.028269 0.158156
vt 0.050447 0.116663
vt 0.080294 0.080294
vt 0.116663 0.050447
vt 0.158156 0.028269
vt 0.203178 0.014612
vt 0.250000 0.010000
vt 0.296822 0.014612
vt 0.341844 0.028269
vt 0.383337 0.050447
vt 0.419706 0.080294
vt 0.449553 0.116663
vt 0.471731 0.158156
vt 0.485388 0.203178
vt 0.490000 0.250000
vt 0.485388 0.296822
vt 0.471731 0.341844
vt 0.449553 0.383337
vt 0.419706 0.419706
vt 0.383337 0.449553
vt 0.341844 0.471731
vt 0.031250 1.000000
vt 0.031250 0.500000
vt 0.000000 1.000000
vt 0.000000 0.500000
vt 0.750000 0.490000
vt 0.796822 0.485388
vt 0.841844 0.471731
vt 0.883337 0.449553
vt 0.919706 0.419706
vt 0.949553 0.383337
vt 0.971731 0.341844
vt 0.985388 0.296822
vt 0.990000 0.250000
vt 0.985388 0.203178
vt 0.971731 0.158156
vt 0.949553 0.116663
vt 0.919706 0.080294
vt 0.883337 0.050447
vt 0.841844 0.028269
vt 0.796822 0.014612
vt 0.750000 0.010000
vt 0.703178 0.014612
vt 0.658156 0.028269
vt 0.616663 0.050447
vt 0.580294 0.080294
vt 0.550447 0.116663
vt 0.528269 0.158156
vt 0.514612 0.203178
vt 0.510000 0.250000
vt 0.514612 0.296822
vt 0.528269 0.341844
vt 0.550447 0.383337
vt 0.580294 0.419706
vt 0.616663 0.449553
vt 0.658156 0.471731
vt 0.703178 0.485388
s 0
f 73/145/41 74/146/41 76/147/41 75/148/41
f 75/148/42 76/147/42 78/149/42 77/150/42
f 77/150/43 78/149/43 80/151/43 79/152/43
f 79/152/44 80/151/44 82/153/44 81/154/44
f 81/154/45 82/153/45 84/155/45 83/156/45
f 83/156/46 84/155/46 86/157/46 85/158/46
f 85/158/47 86/157/47 88/159/47 87/160/47
f 87/160/48 88/159/48 90/161/48 89/162/48
f 89/162/49 90/161/49 92/163/49 91/164/49
f 91/164/50 92/163/50 94/165/50 93/166/50
f 93/166/51 94/165/51 96/167/51 95/168/51
f 95/168/52 96/167/52 98/169/52 97/170/52
f 97/170/53 98/169/53 100/171/53 99/172/53
f 99/172/54 100/171/54 102/173/54 101/174/54
f 101/174/55 102/173/55 104/175/55 103/176/55
f 103/176/56 104/175/56 106/177/56 105/178/56
f 105/178/57 106/177/57 108/179/57 107/180/57
f 107/180/58 108/179/58 110/181/58 109/182/58
f 109/182/59 110/181/59 112/183/59 111/184/59
f 111/184/60 112/183/60 114/185/60 113/186/60
f 113/186/61 114/185/61 116/187/61 115/188/61
f 115/188/62 116/187/62 118/189/62 117/190/62
f 117/190/63 118/189/63 120/191/63 119/192/63
f 119/192/64 120/191/64 122/193/64 121/194/64
f 121/194/65 122/193/65 124/195/65 123/196/65
f 123/196/66 124/195/66 126/197/66 125/198/66
f 125/198/67 126/197/67 128/199/67 127/200/67
f 127/200/68 128/199/68 130/201/68 129/202/68
f 129/202/69 130/201/69 132/203/69 131/204/69
f 131/204/70 132/203/70 134/205/70 133/206/70
f 76/207/71 74/208/71 136/209/71 134/210/71 132/211/71 130/212/71 128/213/71 126/214/71 124/215/71 122/216/71 120/217/71 118/218/71 116/219/71 114/220/71 112/221/71 110/222/71 108/223/71 106/224/71 104/225/71 102/226/71 100/227/71 98/228/71 96/229/71 94/230/71 92/231/71 90/232/71 88/233/71 86/234/71 84/235/71 82/236/71 80/237/71 78/238/71
f 133/206/72 134/205/72 136/239/72 135/240/72
f 135/240/73 136/239/73 74/241/73 73/242/73
f 73/243/74 75/244/74 77/245/74 79/246/74 81/247/74 83/248/74 85/249/74 87/250/74 89/251/74 91/252/74 93/253/74 95/254/74 97/255/74 99/256/74 101/257/74 103/258/74 105/259/74 107/260/74 109/261/74 111/262/74 113/263/74 115/264/74 117/265/74 119/266/74 121/267/74 123/268/74 125/269/74 127/270/74 129/271/74 131/272/74 133/273/74 135/274/74
o Cube.002
v 0.133250 0.343611 0.458853
v 0.266057 1.233758 0.458853
v 0.133250 0.343611 -1.141147
v 0.266057 1.233758 -1.141147
v 0.172812 0.337709 0.458853
v 0.169825 0.436614 0.358853
v 0.305620 1.227856 0.458853
v 0.273119 1.128951 0.358853
v 0.172812 0.337709 -1.141147
v 0.169825 0.436614 -1.041147
v 0.305620 1.227856 -1.141147
v 0.273119 1.128951 -1.041147
v 0.147620 0.439927 0.358853
v 0.250915 1.132263 0.358853
v 0.147620 0.439927 -1.041147
v 0.250915 1.132263 -1.041147
vn -0.9891 0.1476 -0.0000
vn -0.0000 -0.0000 -1.0000
vn 0.9891 -0.1476 -0.0000
vn -0.0000 -0.0000 1.0000
vn -0.1476 -0.9891 -0.0000
vn 0.1476 0.9891 -0.0000
vt 0.402050 0.015625
vt 0.375000 0.000000
vt 0.625000 0.000000
vt 0.625000 0.250000
vt 0.375000 0.250000
vt 0.402050 0.234375
vt 0.596495 0.234375
vt 0.596495 0.015625
vt 0.625000 0.500000
vt 0.375000 0.500000
vt 0.625000 0.750000
vt 0.375000 0.750000
vt 0.625000 1.000000
vt 0.375000 1.000000
vt 0.125000 0.500000
vt 0.125000 0.750000
vt 0.875000 0.500000
vt 0.875000 0.750000
vt 0.625000 0.359686
vt 0.375000 0.359686
vt 0.375000 0.890314
vt 0.625000 0.890314
vt 0.234686 0.500000
vt 0.234686 0.750000
vt 0.765314 0.500000
vt 0.765314 0.750000
s 0
f 149/275/75 137/276/75 138/277/75 140/278/75 139/279/75 151/280/75 152/281/75 150/282/75
f 139/279/75 137/276/75 149/275/75 151/280/75
f 139/279/76 140/278/76 147/283/76 145/284/76
f 145/284/77 147/283/77 143/285/77 141/286/77
f 141/286/78 143/285/78 138/287/78 137/288/78
f 139/289/79 145/284/79 141/286/79 137/290/79
f 147/283/80 140/291/80 138/292/80 143/285/80
f 146/284/78 148/283/78 152/293/78 151/294/78
f 146/284/75 142/286/75 144/285/75 148/283/75
f 144/285/76 142/286/76 149/295/76 150/296/76
f 142/286/80 146/284/80 151/297/80 149/298/80
f 152/299/79 148/283/79 144/285/79 150/300/79
o Cube.001
v 0.211783 0.055876 -0.232740
v 0.211783 0.655876 -0.232740
v 0.211783 0.055876 -0.432740
v 0.211783 0.655876 -0.432740
v 0.251783 0.055876 -0.232740
v 0.251783 0.655876 -0.232740
v 0.251783 0.055876 -0.432740
v 0.251783 0.655876 -0.432740
vn -1.0000 -0.0000 -0.0000
vn -0.0000 -0.0000 -1.0000
vn 1.0000 -0.0000 -0.0000
vn -0.0000 -0.0000 1.0000
vn -0.0000 -1.0000 -0.0000
vn -0.0000 1.0000 -0.0000
vt 0.375000 0.000000
vt 0.625000 0.000000
vt 0.625000 0.250000
vt 0.375000 0.250000
vt 0.625000 0.500000
vt 0.375000 0.500000
vt 0.625000 0.750000
vt 0.375000 0.750000
vt 0.625000 1.000000
vt 0.375000 1.000000
vt 0.125000 0.500000
vt 0.125000 0.750000
vt 0.875000 0.500000
vt 0.875000 0.750000
s 0
f 153/301/81 154/302/81 156/303/81 155/304/81
f 155/304/82 156/303/82 160/305/82 159/306/82
f 159/306/83 160/305/83 158/307/83 157/308/83
f 157/308/84 158/307/84 154/309/84 153/310/84
f 155/311/85 159/306/85 157/308/85 153/312/85
f 160/305/86 156/313/86 154/314/86 158/307/86
o Cube.003
v -0.350610 0.035304 -0.077643
v -0.350610 0.075304 -0.077643
v -0.350610 0.035304 -0.725623
v -0.350610 0.075304 -0.725623
v -0.107714 0.035304 -0.077643
v -0.107714 0.075304 -0.077643
v -0.107714 0.035304 -0.725623
v -0.107714 0.075304 -0.725623
vn -1.0000 -0.0000 -0.0000
vn -0.0000 -0.0000 -1.0000
vn 1.0000 -0.0000 -0.0000
vn -0.0000 -0.0000 1.0000
vn -0.0000 -1.0000 -0.0000
vn -0.0000 1.0000 -0.0000
vt 0.375000 0.000000
vt 0.625000 0.000000
vt 0.625000 0.250000
vt 0.375000 0.250000
vt 0.625000 0.500000
vt 0.375000 0.500000
vt 0.625000 0.750000
vt 0.375000 0.750000
vt 0.625000 1.000000
vt 0.375000 1.000000
vt 0.125000 0.500000
vt 0.125000 0.750000
vt 0.875000 0.500000
vt 0.875000 0.750000
s 0
f 161/315/87 162/316/87 164/317/87 163/318/87
f 163/318/88 164/317/88 168/319/88 167/320/88
f 167/320/89 168/319/89 166/321/89 165/322/89
f 165/322/90 166/321/90 162/323/90 161/324/90
f 163/325/91 167/320/91 165/322/91 161/326/91
f 168/319/92 164/327/92 162/328/92 166/321/92
